<svg width="32" height="32" viewBox="0 0 32 32" fill="none" xmlns="http://www.w3.org/2000/svg">
  <!-- Background -->
  <rect width="32" height="32" fill="#0a0a0a"/>

  <!-- Infinity symbol (lemniscate) -->
  <path d="M 8 16 C 8 13, 9.5 11, 12 11 C 14.5 11, 16 13, 16 16 C 16 19, 17.5 21, 20 21 C 22.5 21, 24 19, 24 16 C 24 13, 22.5 11, 20 11 C 17.5 11, 16 13, 16 16 C 16 19, 14.5 21, 12 21 C 9.5 21, 8 19, 8 16 Z"
        stroke="#00ffcc"
        stroke-width="2"
        fill="none"
        stroke-linecap="round"
        stroke-linejoin="round"/>

  <!-- Inner glow -->
  <path d="M 8 16 C 8 13, 9.5 11, 12 11 C 14.5 11, 16 13, 16 16 C 16 19, 17.5 21, 20 21 C 22.5 21, 24 19, 24 16 C 24 13, 22.5 11, 20 11 C 17.5 11, 16 13, 16 16 C 16 19, 14.5 21, 12 21 C 9.5 21, 8 19, 8 16 Z"
        stroke="#00ffcc"
        stroke-width="1"
        fill="none"
        opacity="0.5"
        stroke-linecap="round"
        stroke-linejoin="round"/>

  <!-- Center accent -->
  <circle cx="16" cy="16" r="1.5" fill="#ffb700" opacity="0.8"/>
</svg>
